<svg xmlns="http://www.w3.org/2000/svg" xmlns:xlink="http://www.w3.org/1999/xlink" width="1080" zoomAndPan="magnify" viewBox="0 0 810 809.999993" height="1080" preserveAspectRatio="xMidYMid meet" version="1.0"><path fill="#76a8fa" d="M 417.054688 493.613281 C 517.910156 493.613281 599.785156 411.921875 599.785156 312.476562 C 599.785156 287.613281 595.042969 265.117188 586.738281 243.800781 C 559.441406 177.5 494.179688 131.328125 418.238281 131.328125 C 316.203125 130.144531 234.324219 211.832031 234.324219 311.285156 C 234.324219 389.429688 284.15625 455.734375 352.976562 481.777344 C 373.15625 488.882812 394.511719 493.613281 417.054688 493.613281 Z M 551.136719 311.285156 C 551.136719 384.691406 490.625 445.070312 417.054688 445.070312 C 343.488281 445.070312 282.976562 384.691406 282.976562 311.285156 C 282.976562 237.886719 343.488281 177.5 417.054688 177.5 C 490.625 177.5 551.136719 237.886719 551.136719 311.285156 Z M 551.136719 311.285156 " fill-opacity="1" fill-rule="evenodd"/><path fill="#f0f0f0" d="M 417.054688 445.070312 C 491.808594 445.070312 551.136719 384.691406 551.136719 311.285156 C 551.136719 237.886719 490.625 177.5 417.054688 177.5 C 343.488281 177.5 282.976562 237.886719 282.976562 311.285156 C 282.976562 384.691406 342.304688 445.070312 417.054688 445.070312 Z M 417.054688 445.070312 " fill-opacity="1" fill-rule="evenodd"/><path fill="#dbdbdb" d="M 399.261719 178.679688 C 465.703125 186.96875 515.542969 243.800781 515.542969 311.285156 C 515.542969 378.769531 464.519531 435.601562 399.261719 443.890625 C 405.191406 445.070312 411.125 445.070312 417.054688 445.070312 C 491.808594 445.070312 551.136719 384.691406 551.136719 311.285156 C 551.136719 237.886719 490.625 177.5 417.054688 177.5 C 411.125 177.5 405.191406 178.679688 399.261719 178.679688 Z M 399.261719 178.679688 " fill-opacity="1" fill-rule="evenodd"/><path fill="#5694f7" d="M 387.394531 132.511719 C 443.160156 141.980469 491.808594 176.316406 517.910156 223.679688 C 538.089844 247.359375 551.136719 278.136719 551.136719 311.285156 C 551.136719 344.4375 539.273438 375.222656 517.910156 398.902344 C 491.808594 446.261719 443.160156 481.777344 387.394531 490.066406 C 396.882812 491.25 406.375 492.433594 415.871094 492.433594 C 516.726562 492.433594 598.601562 410.738281 598.601562 311.285156 C 598.601562 286.421875 593.851562 263.933594 585.546875 242.617188 C 558.257812 176.316406 493 130.148438 417.054688 130.148438 C 406.375 130.148438 396.882812 131.328125 387.394531 132.511719 Z M 387.394531 132.511719 " fill-opacity="1" fill-rule="evenodd"/><path fill="#6e6565" d="M 635.386719 417.84375 L 424.179688 397.71875 L 211.78125 417.84375 L 231.953125 712.644531 C 233.136719 739.882812 253.304688 760.003906 278.226562 760.003906 L 570.125 760.003906 C 593.851562 760.003906 614.023438 739.882812 615.214844 712.644531 Z M 635.386719 417.84375 " fill-opacity="1" fill-rule="evenodd"/><path fill="#dbdbdb" d="M 341.113281 668.839844 L 330.441406 505.460938 C 329.25 493.613281 319.757812 485.328125 307.894531 485.328125 C 296.023438 486.511719 286.53125 495.988281 287.726562 507.824219 L 298.394531 671.214844 C 299.589844 683.050781 307.894531 691.339844 319.757812 691.339844 L 320.941406 691.339844 C 332.804688 690.15625 342.304688 680.683594 341.113281 668.839844 Z M 341.113281 668.839844 " fill-opacity="1" fill-rule="evenodd"/><path fill="#dbdbdb" d="M 402.816406 507.824219 L 402.816406 670.023438 C 402.816406 681.867188 412.308594 691.335938 424.179688 691.335938 C 436.042969 691.335938 445.535156 681.867188 445.535156 671.214844 L 445.535156 507.824219 C 445.535156 495.988281 436.042969 486.507812 424.179688 486.507812 C 412.308594 486.507812 402.816406 495.988281 402.816406 507.824219 Z M 402.816406 507.824219 " fill-opacity="1" fill-rule="evenodd"/><path fill="#dbdbdb" d="M 517.910156 505.460938 L 507.238281 668.839844 C 507.238281 680.683594 515.542969 690.15625 527.40625 691.339844 L 528.59375 691.339844 C 540.453125 691.339844 548.761719 683.050781 549.953125 671.214844 L 560.636719 507.824219 C 560.636719 495.988281 552.328125 486.511719 540.453125 485.328125 C 528.59375 485.328125 519.101562 493.613281 517.910156 505.460938 Z M 517.910156 505.460938 " fill-opacity="1" fill-rule="evenodd"/><path fill="#5c5757" d="M 595.042969 417.84375 L 574.875 712.644531 C 573.683594 739.882812 553.511719 760.003906 529.78125 760.003906 L 570.125 760.003906 C 593.851562 760.003906 614.023438 739.882812 615.214844 712.644531 L 635.386719 417.84375 Z M 595.042969 417.84375 " fill-opacity="1" fill-rule="evenodd"/><path fill="#a0e897" d="M 647.25 417.84375 C 663.863281 417.84375 678.101562 404.824219 678.101562 388.25 C 678.101562 371.671875 663.863281 358.644531 647.25 358.644531 L 201.097656 358.644531 C 184.488281 358.644531 170.25 371.671875 170.25 388.25 C 170.25 404.824219 184.488281 417.84375 201.097656 417.84375 Z M 647.25 417.84375 " fill-opacity="1" fill-rule="evenodd"/><path fill="#86db7b" d="M 604.53125 388.25 C 604.53125 398.902344 598.601562 408.371094 589.113281 413.109375 C 584.363281 415.476562 578.429688 417.84375 572.5 417.84375 L 646.066406 417.84375 C 662.671875 417.84375 676.910156 404.824219 676.910156 388.25 C 676.910156 371.671875 662.671875 358.644531 646.066406 358.644531 L 571.308594 358.644531 C 578.429688 358.644531 584.363281 361.011719 589.113281 364.566406 C 598.601562 369.300781 604.53125 377.585938 604.53125 388.25 Z M 604.53125 388.25 " fill-opacity="1" fill-rule="evenodd"/><path fill="#000000" d="M 456.214844 302.996094 L 425.363281 302.996094 L 425.363281 249.722656 C 425.363281 242.617188 420.613281 237.886719 413.5 237.886719 C 406.375 237.886719 401.632812 242.617188 401.632812 249.722656 L 401.632812 314.84375 C 401.632812 321.945312 406.375 326.679688 413.5 326.679688 L 456.214844 326.679688 C 463.332031 326.679688 468.078125 321.945312 468.078125 314.84375 C 468.078125 307.738281 462.144531 302.996094 456.214844 302.996094 Z M 456.214844 302.996094 " fill-opacity="1" fill-rule="nonzero"/><path fill="#000000" d="M 415.871094 92.253906 C 422.988281 92.253906 427.738281 87.523438 427.738281 80.417969 L 427.738281 49.632812 C 427.738281 42.53125 422.988281 37.796875 415.871094 37.796875 C 408.75 37.796875 404 42.53125 404 49.632812 L 404 80.417969 C 404 86.332031 409.929688 92.253906 415.871094 92.253906 Z M 415.871094 92.253906 " fill-opacity="1" fill-rule="nonzero"/><path fill="#000000" d="M 316.203125 111.195312 C 323.316406 111.195312 328.066406 106.464844 328.066406 99.359375 L 328.066406 69.757812 C 328.066406 62.660156 323.316406 57.921875 316.203125 57.921875 C 309.078125 57.921875 304.328125 62.660156 304.328125 69.757812 L 304.328125 100.542969 C 304.328125 106.464844 310.261719 111.195312 316.203125 111.195312 Z M 316.203125 111.195312 " fill-opacity="1" fill-rule="nonzero"/><path fill="#000000" d="M 237.882812 169.210938 C 245 169.210938 249.75 164.480469 249.75 157.375 L 249.75 126.589844 C 249.75 119.484375 245 114.753906 237.882812 114.753906 C 230.761719 114.753906 226.019531 119.484375 226.019531 126.589844 L 226.019531 157.375 C 226.019531 163.296875 231.953125 169.210938 237.882812 169.210938 Z M 237.882812 169.210938 " fill-opacity="1" fill-rule="nonzero"/><path fill="#000000" d="M 515.542969 111.195312 C 522.660156 111.195312 527.40625 106.464844 527.40625 99.359375 L 527.40625 69.757812 C 527.40625 62.660156 522.660156 57.921875 515.542969 57.921875 C 508.421875 57.921875 503.671875 62.660156 503.671875 69.757812 L 503.671875 100.542969 C 503.671875 106.464844 508.421875 111.195312 515.542969 111.195312 Z M 515.542969 111.195312 " fill-opacity="1" fill-rule="nonzero"/><path fill="#000000" d="M 593.851562 169.210938 C 600.976562 169.210938 605.71875 164.480469 605.71875 157.375 L 605.71875 126.589844 C 605.71875 119.484375 600.976562 114.753906 593.851562 114.753906 C 586.738281 114.753906 581.988281 119.484375 581.988281 126.589844 L 581.988281 157.375 C 581.988281 163.296875 587.921875 169.210938 593.851562 169.210938 Z M 593.851562 169.210938 " fill-opacity="1" fill-rule="nonzero"/></svg>